<svg width="32" height="32" viewBox="0 0 32 32" fill="none" xmlns="http://www.w3.org/2000/svg">
<path d="M16 16C17.6832 16 19.0476 14.6356 19.0476 12.9524C19.0476 11.2693 17.6832 9.90479 16 9.90479C14.3168 9.90479 12.9524 11.2693 12.9524 12.9524C12.9524 14.6356 14.3168 16 16 16Z" stroke="white" stroke-width="2" stroke-linecap="round" stroke-linejoin="round"/>
<path d="M5.33333 9.90477H6.85714V8.38096C6.85714 7.57268 7.17823 6.79751 7.74976 6.22597C8.3213 5.65443 9.09648 5.33334 9.90476 5.33334H22.0952C22.9035 5.33334 23.6787 5.65443 24.2502 6.22597C24.8218 6.79751 25.1429 7.57268 25.1429 8.38096V23.6191C25.1429 24.4273 24.8218 25.2025 24.2502 25.774C23.6787 26.3456 22.9035 26.6667 22.0952 26.6667H9.90476C9.09648 26.6667 8.3213 26.3456 7.74976 25.774C7.17823 25.2025 6.85714 24.4273 6.85714 23.6191V22.0952H5.33333M5.33333 16H6.85714M5.33333 12.9524H6.85714M5.33333 19.0476H6.85714" stroke="white" stroke-width="2" stroke-linecap="round" stroke-linejoin="round"/>
<path fill-rule="evenodd" clip-rule="evenodd" d="M20.5714 20.5714V19.0476C20.5714 18.2393 20.2503 17.4642 19.6788 16.8926C19.1072 16.3211 18.3321 16 17.5238 16H14.4762C13.6679 16 12.8927 16.3211 12.3212 16.8926C11.7496 17.4642 11.4286 18.2393 11.4286 19.0476V20.5714C11.4286 20.9756 11.5891 21.3632 11.8749 21.6489C12.1606 21.9347 12.5482 22.0952 12.9524 22.0952H19.0476C19.4517 22.0952 19.8393 21.9347 20.1251 21.6489C20.4109 21.3632 20.5714 20.9756 20.5714 20.5714Z" stroke="white" stroke-width="2" stroke-linecap="round" stroke-linejoin="round"/>
</svg>
