<svg width="18" height="18" viewBox="0 0 18 18" fill="none" xmlns="http://www.w3.org/2000/svg">
<path d="M13.3374 1.46155H8.88461L11.7179 5.23953L13.3374 1.46155Z" fill="#FD9B07"/>
<path d="M3.89346 1.46155L5.51289 5.23953L8.3462 1.46155H3.89346Z" fill="#FD9B07"/>
<path d="M8.61539 2.89752L6.46154 5.7692H10.7692L8.61539 2.89752Z" fill="#FD9B07"/>
<path d="M14.2339 2.103L12.6626 5.76925H16.4231L14.2339 2.103Z" fill="#FD9B07"/>
<path d="M2.99688 2.103L0.77404 5.76925H4.56818L2.99688 2.103Z" fill="#FD9B07"/>
<path d="M4.93635 6.84616H0.807693L8.30577 16.5385H8.32361L4.93635 6.84616Z" fill="#FD9B07"/>
<path d="M12.2944 6.84616L8.90714 16.5385H8.92497L16.423 6.84616H12.2944Z" fill="#FD9B07"/>
<path d="M11.0853 6.84616H6.14554L8.61539 13.8462L11.0853 6.84616Z" fill="#FD9B07"/>
</svg>
