<svg width="20" height="20" viewBox="0 0 20 20" fill="none" xmlns="http://www.w3.org/2000/svg">
<path d="M14.6665 18.8001H5.3332C3.81654 18.8001 2.43321 17.6334 2.18321 16.1334L1.07487 9.50009C0.89987 8.46676 1.39987 7.14176 2.22487 6.48343L7.99988 1.85839C9.11655 0.95839 10.8749 0.966731 11.9999 1.86673L17.7749 6.48343C18.5915 7.14176 19.0915 8.46676 18.9249 9.50009L17.8165 16.1334C17.5665 17.6084 16.1582 18.8001 14.6665 18.8001ZM9.99155 2.45007C9.54988 2.45007 9.1082 2.58338 8.7832 2.84172L3.00821 7.46676C2.53321 7.85009 2.20821 8.70005 2.30821 9.30005L3.41655 15.9334C3.56655 16.8084 4.44154 17.5501 5.3332 17.5501H14.6665C15.5582 17.5501 16.4332 16.8084 16.5832 15.9251L17.6915 9.29176C17.7915 8.69176 17.4582 7.83342 16.9915 7.45842L11.2165 2.84172C10.8832 2.58338 10.4415 2.45007 9.99155 2.45007Z" fill="#BBBBBB"/>
<path d="M10 13.5417C8.50835 13.5417 7.29169 12.325 7.29169 10.8333C7.29169 9.34167 8.50835 8.125 10 8.125C11.4917 8.125 12.7084 9.34167 12.7084 10.8333C12.7084 12.325 11.4917 13.5417 10 13.5417ZM10 9.375C9.20002 9.375 8.54169 10.0333 8.54169 10.8333C8.54169 11.6333 9.20002 12.2917 10 12.2917C10.8 12.2917 11.4584 11.6333 11.4584 10.8333C11.4584 10.0333 10.8 9.375 10 9.375Z" fill="#BBBBBB"/>
</svg>
