<svg width="20" height="20" viewBox="0 0 20 20" fill="none" xmlns="http://www.w3.org/2000/svg">
<path d="M9.99996 18.4C9.74996 18.4 9.49996 18.3417 9.29163 18.225C7.73329 17.375 4.99163 16.475 3.27496 16.25L3.03329 16.2167C1.94163 16.0833 1.04163 15.0583 1.04163 13.95V3.88333C1.04163 3.225 1.29996 2.625 1.77496 2.19167C2.24996 1.75833 2.86663 1.55 3.51663 1.60833C5.34996 1.75 8.11663 2.66667 9.68329 3.65L9.88329 3.76667C9.94163 3.8 10.0666 3.8 10.1166 3.775L10.25 3.69167C11.8166 2.70833 14.5833 1.775 16.425 1.61667C16.4416 1.61667 16.5083 1.61667 16.525 1.61667C17.1333 1.55833 17.7583 1.775 18.225 2.20833C18.7 2.64167 18.9583 3.24167 18.9583 3.9V13.9583C18.9583 15.075 18.0583 16.0917 16.9583 16.225L16.6833 16.2583C14.9666 16.4833 12.2166 17.3917 10.6916 18.2333C10.4916 18.35 10.25 18.4 9.99996 18.4ZM3.31663 2.85C3.04996 2.85 2.80829 2.94167 2.61663 3.11667C2.40829 3.30833 2.29163 3.58333 2.29163 3.88333V13.95C2.29163 14.4417 2.71663 14.9167 3.19163 14.9833L3.44163 15.0167C5.31663 15.2667 8.19163 16.2083 9.85829 17.1167C9.93329 17.15 10.0416 17.1583 10.0833 17.1417C11.75 16.2167 14.6416 15.2667 16.525 15.0167L16.8083 14.9833C17.2833 14.925 17.7083 14.4417 17.7083 13.95V3.89167C17.7083 3.58333 17.5916 3.31667 17.3833 3.11667C17.1666 2.925 16.8916 2.83333 16.5833 2.85C16.5666 2.85 16.5 2.85 16.4833 2.85C14.8916 2.99167 12.325 3.85 10.925 4.725L10.7916 4.81667C10.3333 5.1 9.68329 5.1 9.24163 4.825L9.04163 4.70833C7.61663 3.83333 5.04996 2.98333 3.41663 2.85C3.38329 2.85 3.34996 2.85 3.31663 2.85Z" fill="#BBBBBB"/>
<path d="M10 17.7C9.65833 17.7 9.375 17.4167 9.375 17.075V4.575C9.375 4.23333 9.65833 3.95 10 3.95C10.3417 3.95 10.625 4.23333 10.625 4.575V17.075C10.625 17.425 10.3417 17.7 10 17.7Z" fill="#BBBBBB"/>
<path d="M6.45837 7.7H4.58337C4.24171 7.7 3.95837 7.41666 3.95837 7.075C3.95837 6.73333 4.24171 6.45 4.58337 6.45H6.45837C6.80004 6.45 7.08337 6.73333 7.08337 7.075C7.08337 7.41666 6.80004 7.7 6.45837 7.7Z" fill="#BBBBBB"/>
<path d="M7.08337 10.2H4.58337C4.24171 10.2 3.95837 9.91666 3.95837 9.575C3.95837 9.23333 4.24171 8.95 4.58337 8.95H7.08337C7.42504 8.95 7.70837 9.23333 7.70837 9.575C7.70837 9.91666 7.42504 10.2 7.08337 10.2Z" fill="#BBBBBB"/>
</svg>
