<svg width="16" height="16" viewBox="0 0 16 16" fill="none" xmlns="http://www.w3.org/2000/svg">
<path d="M11.6266 10.2467C11.5 10.2467 11.3733 10.2 11.2733 10.1C11.08 9.90667 11.08 9.58667 11.2733 9.39333L12.6266 8.04L11.2733 6.68667C11.08 6.49333 11.08 6.17333 11.2733 5.98C11.4666 5.78667 11.7866 5.78667 11.98 5.98L13.6866 7.68667C13.88 7.88 13.88 8.2 13.6866 8.39333L11.98 10.1C11.88 10.2 11.7533 10.2467 11.6266 10.2467Z" fill="#F54123"/>
<path d="M13.2867 8.54H6.50671C6.23338 8.54 6.00671 8.31333 6.00671 8.04C6.00671 7.76667 6.23338 7.54 6.50671 7.54H13.2867C13.56 7.54 13.7867 7.76667 13.7867 8.04C13.7867 8.31333 13.56 8.54 13.2867 8.54Z" fill="#F54123"/>
<path d="M7.84005 13.8333C4.40671 13.8333 2.00671 11.4333 2.00671 8C2.00671 4.56667 4.40671 2.16667 7.84005 2.16667C8.11338 2.16667 8.34005 2.39333 8.34005 2.66667C8.34005 2.94 8.11338 3.16667 7.84005 3.16667C4.99338 3.16667 3.00671 5.15333 3.00671 8C3.00671 10.8467 4.99338 12.8333 7.84005 12.8333C8.11338 12.8333 8.34005 13.06 8.34005 13.3333C8.34005 13.6067 8.11338 13.8333 7.84005 13.8333Z" fill="#F54123"/>
</svg>
