<svg width="35" height="35" viewBox="0 0 35 35" fill="none" xmlns="http://www.w3.org/2000/svg">
<path d="M0.738806 30.6637C0.207985 29.6036 0.015343 28.4678 0.0135838 27.2959C0.005265 21.7601 0.0021364 16.2244 0.00101689 10.6886C0.000786963 9.55448 -0.00797406 8.41945 0.0304163 7.28629C0.153944 3.64036 2.93758 0.60188 6.55748 0.167453C7.3795 0.0688011 8.21173 0.0128347 9.03942 0.0109752C14.879 -0.00213786 20.7186 -0.00451617 26.5582 0.00941494C28.2236 0.0133873 29.8466 0.269597 31.2996 1.16438C33.2867 2.38806 34.4646 4.17062 34.8203 6.47278C34.9425 7.26416 34.9877 8.07454 34.9895 8.87643C35.0031 14.795 35.0028 20.7137 34.9925 26.6323C34.9901 28.0035 34.8296 29.355 34.1827 30.6361C23.0796 30.6522 12.0316 30.6513 0.983592 30.651C0.901995 30.651 0.820402 30.6593 0.738806 30.6637ZM13.7761 7.49011C11.5857 10.878 9.39522 14.2658 7.18715 17.681C14.1114 18.8787 19.7583 22.1816 24.2432 27.5503C25.4562 17.8582 20.0739 10.3418 14.0367 7.1159C13.9614 7.22113 13.8838 7.32958 13.7761 7.49011ZM23.7501 8.27569C22.9816 6.4512 22.0489 4.72273 20.8058 3.11852C19.8903 4.53596 19.0125 5.89505 18.1323 7.25793C21.8266 10.5472 24.1752 14.5909 25.3274 19.3535C25.7562 15.5455 25.2201 11.876 23.7501 8.27569Z" fill="#014F71"/>
<path d="M0.929199 30.7071C1.00364 30.6718 1.08455 30.6637 1.16546 30.6637C12.1205 30.664 23.0755 30.6649 34.0708 30.6709C33.1936 32.6948 31.6349 33.9833 29.526 34.6438C28.5598 34.9464 27.5626 34.9959 26.5595 34.9959C20.5252 34.9956 14.4908 34.9893 8.45653 35C6.7625 35.003 5.14351 34.7485 3.68559 33.8312C2.46842 33.0654 1.53791 32.0446 0.929199 30.7071Z" fill="#FFCB05"/>
<path d="M13.9637 7.4722C14.0553 7.33766 14.132 7.22917 14.2064 7.1239C20.1761 10.3511 25.4981 17.8705 24.2987 27.5664C19.864 22.1956 14.2803 18.8914 7.43359 17.6932C9.61694 14.2767 11.7829 10.8875 13.9637 7.4722ZM12.6739 13.4477C12.6408 13.5371 12.605 13.6255 12.575 13.716C12.1466 15.009 12.5743 16.4151 13.6432 17.2302C14.7281 18.0575 16.1955 18.0812 17.3051 17.2894C18.3968 16.5104 18.8741 15.1059 18.4876 13.8099C18.1312 12.615 17.0733 11.731 15.8367 11.5948C14.542 11.4523 13.3664 12.1252 12.6739 13.4477Z" fill="#FDCA06"/>
<path d="M23.739 8.3417C25.155 11.9525 25.6754 15.6629 25.2591 19.5133C24.1406 14.6976 21.8607 10.6089 18.2744 7.28291C19.1289 5.90484 19.981 4.5306 20.8697 3.09735C22.0765 4.71945 22.9819 6.46719 23.739 8.3417Z" fill="#FCCA06"/>
<path d="M12.6644 13.5848C13.3426 12.3107 14.5153 11.648 15.8069 11.7884C17.0406 11.9225 18.096 12.7929 18.4515 13.9694C18.8371 15.2455 18.361 16.6284 17.2719 17.3955C16.1649 18.1752 14.701 18.1518 13.6187 17.3372C12.5524 16.5346 12.1257 15.1501 12.5531 13.877C12.583 13.7879 12.6187 13.7008 12.6644 13.5848Z" fill="#025070"/>
</svg>
