<svg width="20" height="20" viewBox="0 0 20 20" fill="none" xmlns="http://www.w3.org/2000/svg">
<path d="M10 8.76667C9.65833 8.76667 9.375 8.48334 9.375 8.14167V5.36667C9.375 5.025 9.65833 4.74167 10 4.74167C10.3417 4.74167 10.625 5.025 10.625 5.36667V8.14167C10.625 8.49167 10.3417 8.76667 10 8.76667Z" fill="#BBBBBB"/>
<path d="M10.0167 16.9583C7.86666 16.9583 5.72499 16.6167 3.68332 15.9333C2.92499 15.6833 2.34999 15.1417 2.09999 14.4583C1.84999 13.775 1.93332 12.9917 2.34166 12.3083L3.39999 10.5417C3.63332 10.15 3.84166 9.41667 3.84166 8.95834V7.20834C3.84166 3.80001 6.60832 1.03334 10.0167 1.03334C13.425 1.03334 16.1917 3.80001 16.1917 7.20834V8.95834C16.1917 9.40834 16.4 10.15 16.6333 10.5417L17.6917 12.3083C18.0833 12.9583 18.15 13.7333 17.8917 14.4417C17.6333 15.15 17.0667 15.6917 16.35 15.9333C14.3083 16.625 12.1667 16.9583 10.0167 16.9583ZM10.0167 2.29167C7.29999 2.29167 5.09166 4.50001 5.09166 7.21667V8.96667C5.09166 9.64167 4.82499 10.6167 4.47499 11.1917L3.41666 12.9667C3.19999 13.325 3.14999 13.7083 3.27499 14.0417C3.39999 14.375 3.68332 14.625 4.08332 14.7583C7.91666 16.0333 12.1333 16.0333 15.9667 14.7583C16.325 14.6417 16.6 14.375 16.725 14.025C16.8583 13.675 16.8167 13.2917 16.625 12.9667L15.5667 11.2C15.2167 10.625 14.95 9.65001 14.95 8.97501V7.22501C14.9417 4.50001 12.7333 2.29167 10.0167 2.29167Z" fill="#BBBBBB"/>
<path d="M9.99998 19.0833C9.10831 19.0833 8.23331 18.7167 7.59998 18.0833C6.96664 17.45 6.59998 16.575 6.59998 15.6833H7.84998C7.84998 16.25 8.08331 16.8 8.48331 17.2C8.88331 17.6 9.43331 17.8333 9.99998 17.8333C11.1833 17.8333 12.15 16.8667 12.15 15.6833H13.4C13.4 17.5583 11.875 19.0833 9.99998 19.0833Z" fill="#BBBBBB"/>
</svg>
