<svg width="17" height="16" viewBox="0 0 17 16" fill="none" xmlns="http://www.w3.org/2000/svg">
<path d="M12.1 1C12.4183 1 12.7235 1.10536 12.9485 1.29289C13.1736 1.48043 13.3 1.73478 13.3 2V14C13.3 14.2652 13.1736 14.5196 12.9485 14.7071C12.7235 14.8946 12.4183 15 12.1 15H4.9C4.58174 15 4.27652 14.8946 4.05147 14.7071C3.82643 14.5196 3.7 14.2652 3.7 14V2C3.7 1.73478 3.82643 1.48043 4.05147 1.29289C4.27652 1.10536 4.58174 1 4.9 1H12.1ZM4.9 0C4.26348 0 3.65303 0.210714 3.20294 0.585786C2.75286 0.960859 2.5 1.46957 2.5 2V14C2.5 14.5304 2.75286 15.0391 3.20294 15.4142C3.65303 15.7893 4.26348 16 4.9 16H12.1C12.7365 16 13.347 15.7893 13.7971 15.4142C14.2471 15.0391 14.5 14.5304 14.5 14V2C14.5 1.46957 14.2471 0.960859 13.7971 0.585786C13.347 0.210714 12.7365 0 12.1 0L4.9 0Z" fill="white"/>
<path d="M8.5 14C8.76522 14 9.01957 13.8946 9.20711 13.7071C9.39464 13.5196 9.5 13.2652 9.5 13C9.5 12.7348 9.39464 12.4804 9.20711 12.2929C9.01957 12.1054 8.76522 12 8.5 12C8.23478 12 7.98043 12.1054 7.79289 12.2929C7.60536 12.4804 7.5 12.7348 7.5 13C7.5 13.2652 7.60536 13.5196 7.79289 13.7071C7.98043 13.8946 8.23478 14 8.5 14Z" fill="white"/>
</svg>
