<svg width="20" height="20" viewBox="0 0 20 20" fill="none" xmlns="http://www.w3.org/2000/svg">
<path d="M5.43334 13.55C5.27501 13.55 5.11667 13.4917 4.99167 13.3667C4.75001 13.125 4.75001 12.725 4.99167 12.4833L7.53334 9.94167C7.77501 9.70001 8.17501 9.70001 8.41668 9.94167C8.65834 10.1833 8.65834 10.5833 8.41668 10.825L5.87501 13.3667C5.75001 13.4833 5.59167 13.55 5.43334 13.55Z" fill="#BBBBBB"/>
<path d="M8.00003 13.575C7.8417 13.575 7.68337 13.5167 7.55837 13.3917L5.0167 10.85C4.77503 10.6083 4.77503 10.2083 5.0167 9.96667C5.25837 9.725 5.65837 9.725 5.90003 9.96667L8.4417 12.5083C8.68337 12.75 8.68337 13.15 8.4417 13.3917C8.3167 13.5167 8.15837 13.575 8.00003 13.575Z" fill="#BBBBBB"/>
<path d="M11.2833 12.5C10.825 12.5 10.4417 12.125 10.4417 11.6667C10.4417 11.2083 10.8083 10.8333 11.2667 10.8333H11.2833C11.7417 10.8333 12.1167 11.2083 12.1167 11.6667C12.1167 12.125 11.75 12.5 11.2833 12.5Z" fill="#BBBBBB"/>
<path d="M14.5666 12.5C14.1083 12.5 13.725 12.125 13.725 11.6667C13.725 11.2083 14.0916 10.8333 14.55 10.8333H14.5666C15.025 10.8333 15.4 11.2083 15.4 11.6667C15.4 12.125 15.025 12.5 14.5666 12.5Z" fill="#BBBBBB"/>
<path d="M12.9167 14.1417C12.4584 14.1417 12.0834 13.775 12.0834 13.3167V13.3C12.0834 12.8417 12.4584 12.4667 12.9167 12.4667C13.375 12.4667 13.75 12.8417 13.75 13.3C13.75 13.7583 13.3834 14.1417 12.9167 14.1417Z" fill="#BBBBBB"/>
<path d="M12.9167 10.8583C12.4584 10.8583 12.0834 10.4917 12.0834 10.0333V10.0167C12.0834 9.55833 12.4584 9.18333 12.9167 9.18333C13.375 9.18333 13.75 9.55833 13.75 10.0167C13.75 10.475 13.3834 10.8583 12.9167 10.8583Z" fill="#BBBBBB"/>
<path d="M12.5 18.9583H7.49996C2.97496 18.9583 1.04163 17.025 1.04163 12.5V10.8333C1.04163 6.30833 2.97496 4.375 7.49996 4.375H12.5C17.025 4.375 18.9583 6.30833 18.9583 10.8333V12.5C18.9583 17.025 17.025 18.9583 12.5 18.9583ZM7.49996 5.625C3.65829 5.625 2.29163 6.99167 2.29163 10.8333V12.5C2.29163 16.3417 3.65829 17.7083 7.49996 17.7083H12.5C16.3416 17.7083 17.7083 16.3417 17.7083 12.5V10.8333C17.7083 6.99167 16.3416 5.625 12.5 5.625H7.49996Z" fill="#BBBBBB"/>
<path d="M10.825 5.62501H9.99166C9.19166 5.62501 8.53333 4.96667 8.53333 4.16667C8.53333 3.36667 9.18333 2.70834 9.98333 2.70834C10.1167 2.70834 10.2083 2.61667 10.2167 2.50001L10.225 1.65834C10.2333 1.31667 10.5083 1.04167 10.85 1.04167H10.8583C11.2 1.05001 11.4833 1.33334 11.475 1.67501L11.4667 2.51667C11.4583 3.30834 10.8 3.95834 10.0083 3.95834C9.87499 3.95834 9.79166 4.05001 9.79166 4.16667C9.79166 4.28334 9.88333 4.37501 9.99999 4.37501H10.8333C11.175 4.37501 11.4583 4.65834 11.4583 5.00001C11.4583 5.34167 11.1667 5.62501 10.825 5.62501Z" fill="#BBBBBB"/>
</svg>
