<svg width="28" height="28" viewBox="0 0 28 28" fill="none" xmlns="http://www.w3.org/2000/svg">
<path d="M17.5 26.5417H10.5C4.16504 26.5417 1.45837 23.835 1.45837 17.5V10.5C1.45837 4.16499 4.16504 1.45833 10.5 1.45833H17.5C23.835 1.45833 26.5417 4.16499 26.5417 10.5V17.5C26.5417 23.835 23.835 26.5417 17.5 26.5417ZM10.5 3.20833C5.12171 3.20833 3.20837 5.12166 3.20837 10.5V17.5C3.20837 22.8783 5.12171 24.7917 10.5 24.7917H17.5C22.8784 24.7917 24.7917 22.8783 24.7917 17.5V10.5C24.7917 5.12166 22.8784 3.20833 17.5 3.20833H10.5Z" fill="white"/>
<path d="M17.4999 11.97C17.2782 11.97 17.0566 11.8883 16.8816 11.7133L13.9999 8.83169L11.1182 11.7133C10.7799 12.0517 10.2199 12.0517 9.88156 11.7133C9.54322 11.375 9.54322 10.815 9.88156 10.4767L13.3816 6.97668C13.7199 6.63835 14.2799 6.63835 14.6182 6.97668L18.1182 10.4767C18.4566 10.815 18.4566 11.375 18.1182 11.7133C17.9432 11.8883 17.7216 11.97 17.4999 11.97Z" fill="#FDC907"/>
<path d="M14 17.8034C13.5217 17.8034 13.125 17.4067 13.125 16.9284V7.59502C13.125 7.11668 13.5217 6.72002 14 6.72002C14.4783 6.72002 14.875 7.11668 14.875 7.59502V16.9284C14.875 17.4184 14.4783 17.8034 14 17.8034Z" fill="#FDC907"/>
<path d="M13.9999 21.2684C11.5383 21.2684 9.06494 20.8717 6.71994 20.09C6.26494 19.9384 6.01994 19.4367 6.1716 18.9817C6.32327 18.5267 6.82495 18.27 7.27995 18.4334C11.62 19.88 16.3916 19.88 20.7316 18.4334C21.1866 18.2817 21.6883 18.5267 21.8399 18.9817C21.9916 19.4367 21.7466 19.9384 21.2916 20.09C18.9349 20.8834 16.4616 21.2684 13.9999 21.2684Z" fill="white"/>
</svg>
