<svg width="54" height="71" viewBox="0 0 54 71" fill="none" xmlns="http://www.w3.org/2000/svg">
<path d="M10.1484 71C9.84019 70.8326 9.61847 70.6085 9.35032 70.5067C6.80608 69.5413 5.07778 66.7162 5.08204 64.1724C5.10221 52.1208 5.0902 40.0691 5.15068 27.9344C6.1432 27.8652 7.0747 27.8792 8.00527 27.9569C8.00404 40.0578 8.00147 52.0949 8.00681 64.132C8.00736 65.3712 8.54574 66.3529 9.47904 67.1699C10.4496 68.0195 11.6112 68.2149 12.8113 68.2174C21.2673 68.2347 29.7233 68.2321 38.1793 68.2204C39.397 68.2188 40.6161 68.1589 41.8319 68.0833C43.7178 67.966 45.4422 66.1121 45.4433 64.2217C45.4469 58.1223 45.4441 52.0229 45.5081 45.9134C46.501 45.91 47.4296 45.9166 48.3581 45.9233C48.3577 52.0653 48.3692 58.2073 48.3511 64.3492C48.3437 66.876 46.6465 69.4991 44.123 70.4894C43.8544 70.5949 43.6091 70.7599 43.3588 70.9487C32.3143 71 21.2638 71 10.1484 71Z" fill="#004F71"/>
<path d="M5.08309 20.6502C5.08589 16.0552 5.11268 11.4601 5.0824 6.86532C5.06448 4.14447 6.92643 1.29353 9.63055 0.360654C9.79419 0.3042 9.93802 0.190318 10.0873 0.051579C21.134 4.13274e-09 32.1844 0 43.2999 0C43.5666 0.144503 43.75 0.332035 43.9728 0.426812C46.0586 1.31391 47.4543 2.82386 48.0852 5.00302C48.2423 5.54555 48.345 6.12542 48.3459 6.68834C48.3629 17.3122 48.3607 27.9361 48.3348 38.6759C47.3485 38.7568 46.3902 38.7217 45.4367 38.622C45.4427 27.9523 45.4529 17.347 45.4213 6.7419C45.4194 6.13576 45.1735 5.47642 44.873 4.93522C43.9758 3.31945 42.4536 2.77935 40.7048 2.77748C32.2253 2.76846 23.7457 2.76793 15.2661 2.77953C14.0484 2.7812 12.8293 2.84193 11.6133 2.91666C9.76356 3.03034 8.00921 4.87896 8.0064 6.71235C7.9993 11.3565 8.00643 16.0006 7.95484 20.668C6.96224 20.6776 6.02267 20.6639 5.08309 20.6502Z" fill="#004F71"/>
<path d="M45.4317 38.6866C46.3901 38.7217 47.3484 38.7568 48.3409 38.7406C50.056 38.6894 51.7372 38.6894 53.4529 38.6894C53.4529 41.0953 53.4529 43.4609 53.4529 45.9024C51.7947 45.9024 50.1407 45.9024 48.4225 45.9128C47.4296 45.9166 46.5011 45.91 45.4438 45.9029C38.53 45.9024 31.7449 45.9024 24.8769 45.9024C24.8769 47.3351 24.8769 48.6961 24.8769 50.1467C23.9193 49.4242 23.0684 48.7642 22.199 48.1296C19.6643 46.2792 17.1203 44.4414 14.5916 42.583C14.5154 42.527 14.502 42.2136 14.5697 42.1602C15.2392 41.6327 15.9305 41.1328 16.6184 40.6288C18.7553 39.0633 20.8924 37.498 23.0318 35.9359C23.6316 35.498 24.2396 35.0715 24.9461 34.5667C24.9461 36.0316 24.9461 37.3403 24.9461 38.6866C31.8061 38.6866 38.6189 38.6866 45.4317 38.6866Z" fill="#004F71"/>
<path d="M5.01882 20.6556C6.02254 20.6639 6.96211 20.6776 8.01901 20.6759C14.9173 20.6606 21.6983 20.6606 28.5273 20.6606C28.5273 19.2912 28.5273 17.9858 28.5273 16.4911C32.1302 19.1202 35.6117 21.6606 39.2045 24.2823C35.6139 26.905 32.1034 29.4692 28.4829 32.1137C28.4829 30.5967 28.4829 29.245 28.4829 27.8731C27.9058 27.8731 27.3764 27.8726 26.847 27.8732C20.5668 27.8798 14.2865 27.8865 8.00621 27.8932C7.07472 27.8792 6.14322 27.8652 5.14885 27.8705C3.40376 27.8897 1.72156 27.8897 0 27.8897C0 25.4731 0 23.1073 0 20.6611C1.64748 20.6611 3.30108 20.6611 5.01882 20.6556Z" fill="#FDCA0C"/>
<path d="M29.3543 8.82672C28.9795 9.48874 28.4626 9.72644 27.7356 9.71989C24.4799 9.69053 21.2238 9.70832 17.9679 9.70635C16.9825 9.70575 16.4751 9.23538 16.4624 8.32339C16.4488 7.34749 16.9433 6.80317 17.9165 6.79975C21.2417 6.78808 24.5669 6.78626 27.8921 6.80005C29.0744 6.80495 29.7089 7.68317 29.3543 8.82672Z" fill="#FDC907"/>
<path d="M30.0142 63.5847C30.2644 64.9297 29.7158 65.591 28.4091 65.5917C27.211 65.5923 26.0129 65.5955 24.8148 65.5905C23.997 65.5872 23.3145 64.9674 23.29 64.2192C23.265 63.4576 23.945 62.7047 24.7436 62.6882C26.0563 62.661 27.3706 62.658 28.6831 62.6908C29.2576 62.7052 29.7451 62.9622 30.0142 63.5847Z" fill="#FDC907"/>
<path d="M36.1108 6.91688C36.94 7.36113 37.1894 7.93507 36.9587 8.7667C36.7935 9.36247 36.2482 9.70432 35.4561 9.70684C35.0417 9.70816 34.6272 9.71178 34.2129 9.70601C33.3766 9.69437 32.8625 9.20776 32.7797 8.3571C32.7053 7.59371 33.2139 6.886 34.0086 6.82139C34.6852 6.76638 35.3743 6.86554 36.1108 6.91688Z" fill="#004F71"/>
</svg>
