<svg width="55" height="71" viewBox="0 0 55 71" fill="none" xmlns="http://www.w3.org/2000/svg">
<path d="M39.4692 0C39.8177 0.186929 40.0844 0.408802 40.3874 0.555324C43.0811 1.85761 44.4913 4.01253 44.5153 6.98711C44.5578 12.2556 44.5272 17.5246 44.5272 22.7934C44.5272 23.0688 44.5272 23.3441 44.5272 23.721C45.7295 23.2869 46.8579 22.8794 47.9864 22.472C49.3225 21.9898 50.6505 21.4833 51.9983 21.0364C52.6268 20.828 53.3041 20.7993 53.7714 21.3968C54.1844 21.9249 54.1557 22.5033 53.9165 23.1438C52.8602 25.9726 51.8537 28.8201 50.82 31.6575C49.2537 35.9567 47.6769 40.2521 46.1112 44.5516C45.6172 45.908 45.1344 47.2686 44.6705 48.6354C44.5697 48.9321 44.5335 49.2638 44.533 49.5795C44.5246 54.3168 44.5077 59.0542 44.5344 63.7914C44.5507 66.6727 43.2735 68.7901 40.8678 70.2761C40.4492 70.5347 39.9737 70.7012 39.5293 70.9616C28.0657 71.0129 16.5972 71.0129 5.0674 70.9613C4.89409 70.8437 4.78882 70.7598 4.66901 70.7142C1.7967 69.6195 -0.00183605 67.0524 1.40658e-06 63.9297C0.0111076 45.0576 0.0042881 26.1854 0.0113514 7.31335C0.0115651 6.74294 0.0443489 6.16193 0.15417 5.60401C0.652466 3.07254 2.12935 1.34146 4.51628 0.370882C4.6974 0.297237 4.8388 0.125917 4.99866 0C16.4672 0 27.9357 0 39.4692 0ZM37.0071 26.4456C38.3201 25.9713 39.6248 25.4713 40.9506 25.036C41.4433 24.8742 41.6301 24.6615 41.6276 24.1225C41.6053 19.3393 41.6151 14.556 41.6132 9.77271C41.6131 9.54788 41.5913 9.32306 41.5752 9.01528C41.2855 9.01528 41.0386 9.01528 40.7917 9.01528C38.0419 9.01528 35.2918 9.03485 32.5424 8.99885C31.9895 8.99161 31.7426 9.19182 31.4963 9.64849C30.7691 10.9968 29.654 11.787 28.0711 11.7882C24.1659 11.7913 20.2607 11.791 16.3555 11.7884C14.7161 11.7873 13.6653 10.84 12.9347 9.51386C12.7114 9.1087 12.5099 9.00787 12.1049 9.00945C9.26271 9.02049 6.42044 9.01434 3.57819 9.01741C3.37858 9.01762 3.179 9.04765 2.98239 9.06357C2.98239 26.7313 2.98239 44.3441 2.98239 61.9432C15.8826 61.9432 28.7183 61.9432 41.5747 61.9432C41.5909 61.7559 41.6127 61.6207 41.6127 61.4854C41.6146 57.534 41.6239 53.5825 41.5988 49.6312C41.5964 49.2664 41.4377 48.8634 41.2424 48.5451C39.8179 46.2238 38.3655 43.9197 36.8999 41.5112C36.3213 40.297 35.622 39.2503 34.3806 38.5271C31.4942 36.8456 28.6896 35.0238 25.8447 33.2706C25.2745 32.9193 24.8676 32.4998 24.936 31.7766C25.0049 31.0488 25.4893 30.7256 26.1213 30.5001C28.4199 29.6799 30.7149 28.8492 33.0038 28.0022C34.315 27.5169 35.6118 26.9924 37.0071 26.4456ZM3.9787 6.24139C7.30704 6.2414 10.6354 6.23967 13.9637 6.24264C14.7844 6.24337 15.3557 6.64425 15.3713 7.44226C15.3946 8.62785 16.3297 8.99567 17.2498 9.00356C20.601 9.03227 23.9535 9.05749 27.3037 8.99264C28.5456 8.96859 29.0291 8.57924 29.1553 7.41375C29.2451 6.58466 29.7251 6.24326 30.5842 6.24255C33.9357 6.23979 37.2871 6.2414 40.6386 6.24139C40.903 6.24139 41.1673 6.24139 41.4982 6.24139C41.4457 5.96538 41.441 5.80388 41.3843 5.66334C40.5833 3.67671 39.1749 2.79544 37.0494 2.78842C27.2032 2.75591 17.3567 2.76433 7.5104 2.78654C6.30583 2.78926 5.13187 3.04483 4.24201 3.98672C3.65484 4.60823 3.06527 5.22878 3.0894 6.24139C3.39054 6.24139 3.61892 6.24139 3.9787 6.24139ZM49.5381 26.5784C49.7369 26.0232 49.9356 25.4681 50.1721 24.8076C43.31 27.2993 36.5353 29.7593 29.6481 32.2602C31.9819 33.7081 34.1938 35.0803 36.4318 36.4687C37.4444 35.4526 38.4181 34.4674 39.4013 33.4918C40.1227 32.7758 40.9727 32.7166 41.5804 33.3231C42.2659 34.007 42.2346 34.8113 41.4874 35.5627C40.6726 36.3822 39.8861 37.234 39.024 38.0007C38.5447 38.427 38.6023 38.7672 38.897 39.2275C39.5015 40.1717 40.0741 41.1364 40.6732 42.0842C41.3243 43.1141 41.9906 44.1345 42.734 45.2893C45.0275 38.9842 47.2651 32.8328 49.5381 26.5784ZM4.66131 67.4117C5.49222 68.0288 6.47405 68.2229 7.45702 68.2252C17.3275 68.2475 27.1981 68.2464 37.0686 68.2314C38.7581 68.2288 40.1566 67.5736 41.0523 66.0776C41.2697 65.7146 41.3652 65.2785 41.5408 64.8122C28.6208 64.8122 15.8697 64.8122 3.06137 64.8122C3.13411 65.9623 3.84591 66.6609 4.66131 67.4117Z" fill="#004F71"/>
<path d="M36.6202 40.9759C36.8225 41.3557 36.9128 41.7834 36.9152 42.2138C36.9162 42.3863 36.917 42.5582 36.9177 42.7298C36.9246 44.3866 35.5787 45.7298 33.9218 45.7298C26.1593 45.7298 18.4261 45.7298 10.6738 45.7298C9.01699 45.7298 7.67383 44.3867 7.67383 42.7298C7.67383 35.0594 7.67383 27.3828 7.67383 19.6834C7.67383 18.0265 9.01697 16.6833 10.6738 16.6833C18.395 16.6833 26.1247 16.6833 33.9003 16.6833C35.5572 16.6833 36.9002 18.0265 36.9006 19.6833C36.9009 21.2676 36.9018 22.8576 36.9041 24.4602C36.9058 25.6516 36.2056 26.7373 35.1022 27.1868C34.4055 27.4706 33.7067 27.742 33.0037 28.0022C30.7149 28.8492 28.4199 29.6799 26.1213 30.5001C25.4893 30.7256 25.0049 31.0488 24.936 31.7766C24.8676 32.4998 25.2745 32.9192 25.8446 33.2706C28.6896 35.0238 31.4941 36.8456 34.3806 38.5271C35.4249 39.1356 36.0857 39.973 36.6202 40.9759Z" fill="#FDCA0C"/>
<path d="M13.7367 56.0337C16.5527 56.0337 19.2994 56.0267 22.0461 56.0367C23.4184 56.0417 24.1697 57.2232 23.4451 58.3053C23.2307 58.6255 22.7075 58.9157 22.3233 58.9189C17.4304 58.9598 12.537 58.9517 7.64371 58.9401C6.81866 58.9382 6.24397 58.2981 6.24733 57.4751C6.25055 56.6848 6.89579 56.049 7.78158 56.0402C9.74332 56.0206 11.7054 56.0338 13.7367 56.0337Z" fill="#004F71"/>
<path d="M8.08492 53.1208C6.55571 53.0843 5.77411 51.9867 6.51001 50.8882C6.74938 50.5308 7.36353 50.2501 7.8144 50.238C10.1869 50.1745 12.5621 50.2056 14.9363 50.2096C15.859 50.2111 16.3585 50.6981 16.3717 51.588C16.3862 52.5648 15.8947 53.1096 14.9265 53.1159C12.6676 53.1307 10.4086 53.1208 8.08492 53.1208Z" fill="#004F71"/>
</svg>
