<svg width="28" height="28" viewBox="0 0 28 28" fill="none" xmlns="http://www.w3.org/2000/svg">
<path d="M17.5 26.5417H10.5C4.16504 26.5417 1.45837 23.835 1.45837 17.5V10.5C1.45837 4.16501 4.16504 1.45834 10.5 1.45834H17.5C23.835 1.45834 26.5417 4.16501 26.5417 10.5V17.5C26.5417 23.835 23.835 26.5417 17.5 26.5417ZM10.5 3.20834C5.12171 3.20834 3.20837 5.12168 3.20837 10.5V17.5C3.20837 22.8783 5.12171 24.7917 10.5 24.7917H17.5C22.8784 24.7917 24.7917 22.8783 24.7917 17.5V10.5C24.7917 5.12168 22.8784 3.20834 17.5 3.20834H10.5Z" fill="white"/>
<path d="M17.3015 14.7933C16.8232 14.7933 16.4265 14.3967 16.4265 13.9183V9.84668H12.3549C11.8765 9.84668 11.4799 9.45001 11.4799 8.97168C11.4799 8.49335 11.8765 8.09668 12.3549 8.09668H17.3015C17.7799 8.09668 18.1765 8.49335 18.1765 8.97168V13.9183C18.1765 14.3967 17.7799 14.7933 17.3015 14.7933Z" fill="#FDC907"/>
<path d="M10.6981 16.4383C10.4765 16.4383 10.2548 16.3567 10.0798 16.1817C9.74147 15.8433 9.74147 15.2833 10.0798 14.945L16.6831 8.34167C17.0215 8.00334 17.5815 8.00334 17.9198 8.34167C18.2581 8.68 18.2581 9.24002 17.9198 9.57835L11.3165 16.1817C11.1531 16.3567 10.9198 16.4383 10.6981 16.4383Z" fill="#FDC907"/>
<path d="M13.9999 21.2684C11.5383 21.2684 9.06494 20.8717 6.71994 20.09C6.26494 19.9384 6.01994 19.4367 6.1716 18.9817C6.32327 18.5267 6.82495 18.27 7.27995 18.4334C11.62 19.88 16.3916 19.88 20.7316 18.4334C21.1866 18.2817 21.6883 18.5267 21.8399 18.9817C21.9916 19.4367 21.7466 19.9384 21.2916 20.09C18.9349 20.8834 16.4616 21.2684 13.9999 21.2684Z" fill="white"/>
</svg>
