<svg width="23" height="22" viewBox="0 0 23 22" fill="none" xmlns="http://www.w3.org/2000/svg">
<path d="M18.7554 20.5643C17.989 21.0864 13.0714 17.7765 12.1296 17.7692C11.1878 17.762 6.21488 20.9958 5.45743 20.4619C4.69997 19.928 6.48071 14.4444 6.19693 13.5879C5.91314 12.7313 1.1519 9.21953 1.45015 8.36744C1.74846 7.51535 7.76655 7.43621 8.53294 6.91405C9.29934 6.39196 11.3297 0.98779 12.2716 0.995002C13.2133 1.00228 15.1519 6.43699 15.9094 6.97087C16.6668 7.50469 22.6829 7.67653 22.9667 8.53307C23.2505 9.38961 18.4305 12.8276 18.1322 13.6797C17.834 14.5318 19.5217 20.0421 18.7554 20.5643Z" fill="#FDC907"/>
</svg>
