<svg width="17" height="17" viewBox="0 0 17 17" fill="none" xmlns="http://www.w3.org/2000/svg">
<path d="M8.5 9.01563C6.32063 9.01563 4.54688 7.24188 4.54688 5.0625C4.54688 2.88313 6.32063 1.10938 8.5 1.10938C10.6794 1.10938 12.4531 2.88313 12.4531 5.0625C12.4531 7.24188 10.6794 9.01563 8.5 9.01563ZM8.5 2.14063C6.89125 2.14063 5.57813 3.45375 5.57813 5.0625C5.57813 6.67125 6.89125 7.98438 8.5 7.98438C10.1088 7.98438 11.4219 6.67125 11.4219 5.0625C11.4219 3.45375 10.1088 2.14063 8.5 2.14063Z" fill="white"/>
<path d="M14.4057 15.8906C14.1239 15.8906 13.8901 15.6569 13.8901 15.375C13.8901 13.0031 11.4701 11.0781 8.50011 11.0781C5.53011 11.0781 3.11011 13.0031 3.11011 15.375C3.11011 15.6569 2.87636 15.8906 2.59448 15.8906C2.31261 15.8906 2.07886 15.6569 2.07886 15.375C2.07886 12.4394 4.95948 10.0469 8.50011 10.0469C12.0407 10.0469 14.9214 12.4394 14.9214 15.375C14.9214 15.6569 14.6876 15.8906 14.4057 15.8906Z" fill="white"/>
</svg>
