<svg width="16" height="16" viewBox="0 0 16 16" fill="none" xmlns="http://www.w3.org/2000/svg">
<path d="M11.8266 15.1667H4.17329C2.51329 15.1667 1.16663 13.82 1.16663 12.16V7.67334C1.16663 6.01334 2.51329 4.66666 4.17329 4.66666H11.8266C13.4866 4.66666 14.8333 6.01334 14.8333 7.67334V8.63334C14.8333 8.90667 14.6066 9.13334 14.3333 9.13334H12.9866C12.7533 9.13334 12.54 9.22 12.3866 9.38L12.38 9.38668C12.1933 9.56668 12.1066 9.81331 12.1266 10.0666C12.1666 10.5066 12.5866 10.86 13.0666 10.86H14.3333C14.6066 10.86 14.8333 11.0866 14.8333 11.36V12.1533C14.8333 13.82 13.4866 15.1667 11.8266 15.1667ZM4.17329 5.66666C3.06663 5.66666 2.16663 6.56667 2.16663 7.67334V12.16C2.16663 13.2667 3.06663 14.1667 4.17329 14.1667H11.8266C12.9333 14.1667 13.8333 13.2667 13.8333 12.16V11.8667H13.0666C12.06 11.8667 11.2066 11.12 11.1266 10.16C11.0733 9.61332 11.2733 9.07334 11.6733 8.68001C12.02 8.32668 12.4866 8.13334 12.9866 8.13334H13.8333V7.67334C13.8333 6.56667 12.9333 5.66666 11.8266 5.66666H4.17329Z" fill="#28A745"/>
<path d="M1.66663 8.77334C1.39329 8.77334 1.16663 8.54667 1.16663 8.27334V5.22671C1.16663 4.23338 1.79329 3.33334 2.71996 2.98001L8.01329 0.980006C8.55996 0.773339 9.16663 0.846705 9.63996 1.18004C10.12 1.51337 10.4 2.05337 10.4 2.63337V5.16669C10.4 5.44003 10.1733 5.66669 9.89996 5.66669C9.62663 5.66669 9.39996 5.44003 9.39996 5.16669V2.63337C9.39996 2.38003 9.27996 2.14669 9.06663 2.00003C8.85329 1.85336 8.59996 1.82002 8.35996 1.91336L3.06663 3.91336C2.52663 4.12002 2.15996 4.64671 2.15996 5.22671V8.27334C2.16663 8.55334 1.93996 8.77334 1.66663 8.77334Z" fill="#28A745"/>
<path d="M13.0666 11.8666C12.06 11.8666 11.2066 11.12 11.1266 10.16C11.0733 9.60662 11.2733 9.06663 11.6733 8.6733C12.0133 8.32663 12.48 8.1333 12.98 8.1333H14.3666C15.0266 8.1533 15.5333 8.67327 15.5333 9.31327V10.6866C15.5333 11.3266 15.0266 11.8466 14.3866 11.8666H13.0666ZM14.3533 9.1333H12.9866C12.7533 9.1333 12.54 9.21996 12.3866 9.37996C12.1933 9.56663 12.1 9.81995 12.1266 10.0733C12.1666 10.5133 12.5866 10.8666 13.0666 10.8666H14.3733C14.46 10.8666 14.54 10.7866 14.54 10.6866V9.31327C14.54 9.21327 14.46 9.13997 14.3533 9.1333Z" fill="#28A745"/>
<path d="M9.33329 8.5H4.66663C4.39329 8.5 4.16663 8.27333 4.16663 8C4.16663 7.72667 4.39329 7.5 4.66663 7.5H9.33329C9.60663 7.5 9.83329 7.72667 9.83329 8C9.83329 8.27333 9.60663 8.5 9.33329 8.5Z" fill="#28A745"/>
</svg>
